<svg width="140" height="140" viewBox="0 0 140 140" fill="none" xmlns="http://www.w3.org/2000/svg">
<path d="M78.4 116.333H130.2C131.853 116.333 133.435 115.753 134.867 114.933C136.298 114.114 137.774 113.086 138.6 111.666C139.426 110.248 140.001 108.638 140 107C139.999 105.361 139.427 103.752 138.6 102.334L103.6 42.1334C102.774 40.7146 101.764 39.6857 100.333 38.8665C98.9021 38.0477 96.8526 37.4665 95.2 37.4665C93.5474 37.4665 91.9645 38.0477 90.5335 38.8665C89.1021 39.6857 88.0927 40.7146 87.2666 42.1334L78.4 57.5334L60.6666 27.6656C59.8398 26.2471 58.8317 24.7523 57.4 23.9334C55.9683 23.1142 54.3864 23 52.7335 23C51.0805 23 49.4983 23.1142 48.0666 23.9334C46.6352 24.7523 45.1602 26.2471 44.3334 27.6656L0.933347 102.334C0.105928 103.752 0.000730036 105.361 3.62066e-06 107C-0.000722794 108.638 0.107182 110.247 0.933347 111.666C1.75951 113.085 3.23516 114.114 4.66666 114.933C6.09819 115.753 7.68029 116.333 9.33335 116.333H42C54.9437 116.333 64.365 110.527 70.9334 99.5334L86.8 71.9999L95.2 57.5334L120.867 101.4H86.8L78.4 116.333ZM41.5334 101.4H18.6666L52.7335 42.6L70 71.9999L58.5626 91.938C54.2008 99.0711 49.2275 101.4 41.5334 101.4Z" fill="#00DC82"/>
</svg>
