<svg width="140" height="140" viewBox="0 0 140 140" fill="none" xmlns="http://www.w3.org/2000/svg">
<g clip-path="url(#clip0_931_1988)">
<path d="M139.361 20.7216L73.6789 138.173C72.3228 140.598 68.8387 140.612 67.4622 138.199L0.477603 20.7329C-1.02198 18.1032 1.22671 14.9179 4.20668 15.4505L69.9593 27.2034C70.3787 27.2784 70.8081 27.2777 71.2276 27.2012L135.605 15.4674C138.575 14.926 140.834 18.0867 139.361 20.7216Z" fill="url(#paint0_linear_931_1988)"/>
<path d="M101.281 0.0344665L52.6738 9.55879C51.8749 9.71532 51.2834 10.3924 51.2352 11.2049L48.2452 61.7035C48.1748 62.893 49.2672 63.8161 50.428 63.5484L63.9609 60.4252C65.2271 60.1332 66.3712 61.2484 66.1109 62.5217L62.0904 82.2098C61.8198 83.5349 63.0638 84.6679 64.3578 84.2749L72.7164 81.7354C74.0122 81.342 75.2573 82.4783 74.9831 83.8044L68.5937 114.73C68.1939 116.664 70.7669 117.719 71.84 116.061L72.5568 114.953L112.164 35.9094C112.828 34.5859 111.684 33.0768 110.23 33.3573L96.3005 36.0457C94.9915 36.2981 93.8777 35.0791 94.2472 33.7984L103.339 2.28071C103.709 0.997843 102.591 -0.222275 101.281 0.0344665Z" fill="url(#paint1_linear_931_1988)"/>
</g>
<defs>
<linearGradient id="paint0_linear_931_1988" x1="-1.15788" y1="11.253" x2="80.5888" y2="122.272" gradientUnits="userSpaceOnUse">
<stop stop-color="#41D1FF"/>
<stop offset="1" stop-color="#BD34FE"/>
</linearGradient>
<linearGradient id="paint1_linear_931_1988" x1="66.1852" y1="2.6203" x2="80.9728" y2="104.062" gradientUnits="userSpaceOnUse">
<stop stop-color="#FFEA83"/>
<stop offset="0.0833333" stop-color="#FFDD35"/>
<stop offset="1" stop-color="#FFA800"/>
</linearGradient>
<clipPath id="clip0_931_1988">
<rect width="140" height="140" fill="white"/>
</clipPath>
</defs>
</svg>
