<svg width="140" height="140" viewBox="0 0 140 140" fill="none" xmlns="http://www.w3.org/2000/svg">
<g clip-path="url(#clip0_931_2005)">
<path d="M0 69.8229C0 90.1593 31.3407 106.646 69.9999 106.646C108.659 106.646 140 90.1593 140 69.8229C140 49.4868 108.659 33.0003 69.9999 33.0003C31.3407 33.0003 0 49.4868 0 69.8229Z" fill="black"/>
<path d="M0 69.8229C0 90.1593 31.3407 106.646 69.9999 106.646C108.659 106.646 140 90.1593 140 69.8229C140 49.4868 108.659 33.0003 69.9999 33.0003C31.3407 33.0003 0 49.4868 0 69.8229Z" fill="url(#paint0_radial_931_2005)"/>
<path d="M69.9999 103.911C107.149 103.911 137.265 88.649 137.265 69.8224C137.265 50.996 107.149 35.7337 69.9999 35.7337C32.8507 35.7337 2.73438 50.996 2.73438 69.8224C2.73438 88.649 32.8507 103.911 69.9999 103.911Z" fill="#777BB3"/>
<path d="M38.0317 74.049C41.0863 74.049 43.3667 73.4857 44.8096 72.3753C46.2371 71.2762 47.223 69.372 47.7397 66.7159C48.2215 64.2332 48.038 62.4996 47.1944 61.5641C46.3318 60.6086 44.4668 60.124 41.6514 60.124H36.7698L34.0636 74.049H38.0317ZM22.0652 91.2021C21.8386 91.2021 21.6234 91.1009 21.4794 90.9257C21.3351 90.7507 21.2766 90.5203 21.3199 90.2978L28.492 53.3962C28.5614 53.0395 28.8741 52.7817 29.2377 52.7817H44.6955C49.5535 52.7817 53.1695 54.1008 55.4423 56.7028C57.7273 59.3184 58.4329 62.9746 57.5394 67.5696C57.1758 69.4416 56.5505 71.1802 55.6808 72.7368C54.8101 74.2951 53.6594 75.737 52.26 77.0232C50.585 78.5909 48.6891 79.7277 46.6303 80.3966C44.6041 81.0566 42.0018 81.3913 38.8961 81.3913H32.6369L30.8494 90.5874C30.78 90.9444 30.4676 91.2021 30.104 91.2021H22.0652Z" fill="black"/>
<path d="M37.396 60.8838H41.6515C45.0495 60.8838 46.2298 61.6294 46.6308 62.0737C47.2962 62.8115 47.4218 64.3671 46.9942 66.572C46.5136 69.0405 45.6229 70.7908 44.3464 71.7737C43.0395 72.7798 40.9148 73.2897 38.0318 73.2897H34.985L37.396 60.8838ZM44.6955 52.0224H29.2375C28.5103 52.0224 27.8852 52.5379 27.7465 53.2516L20.5743 90.1532C20.4877 90.5985 20.6047 91.0591 20.8931 91.4092C21.1817 91.7594 21.6116 91.9619 22.0653 91.9619H30.1039C30.8313 91.9619 31.4564 91.4464 31.5951 90.7327L33.2631 82.1511H38.8961C42.0817 82.1511 44.7634 81.8037 46.8661 81.1189C49.0285 80.4163 51.018 79.2251 52.7789 77.5784C54.2352 76.2385 55.4348 74.7346 56.3437 73.1079C57.2529 71.4807 57.9061 69.6662 58.2851 67.7146C59.2257 62.8778 58.4616 59.0047 56.0143 56.2034C53.5908 53.4291 49.7825 52.0224 44.6955 52.0224ZM33.1421 74.8088H38.0318C41.2728 74.8088 43.6868 74.1984 45.273 72.9773C46.8595 71.7559 47.9294 69.7176 48.4854 66.8612C49.0173 64.1187 48.7751 62.1834 47.7585 61.0559C46.7407 59.9285 44.7054 59.3647 41.6515 59.3647H36.1438L33.1421 74.8088ZM44.6955 53.5415C49.3457 53.5415 52.7381 54.7618 54.8704 57.2028C57.0025 59.6437 57.6445 63.0508 56.7938 67.425C56.4437 69.2269 55.8515 70.8743 55.0178 72.3669C54.183 73.8604 53.0931 75.226 51.7461 76.4644C50.141 77.9665 48.3578 79.037 46.3956 79.6745C44.4335 80.3138 41.9343 80.632 38.8961 80.632H32.0106L30.1039 90.4428H22.0653L29.2375 53.5415H44.6955Z" fill="white"/>
<path d="M75.9706 81.3916C75.7438 81.3916 75.5288 81.2903 75.3848 81.1151C75.2402 80.9402 75.1817 80.71 75.225 80.4872L78.3977 64.1598C78.6994 62.607 78.625 61.4925 78.1883 61.0216C77.9209 60.7337 77.1178 60.2509 74.7432 60.2509H68.9955L65.0066 80.7769C64.9372 81.1339 64.6245 81.3916 64.261 81.3916H56.2857C56.0589 81.3916 55.8439 81.2903 55.6996 81.1151C55.5553 80.9402 55.4968 80.7098 55.5401 80.4872L62.7122 43.5856C62.7816 43.2289 63.0943 42.9712 63.4579 42.9712H71.4331C71.66 42.9712 71.8749 43.0724 72.0192 43.2474C72.1635 43.4226 72.222 43.6527 72.1787 43.8755L70.448 52.782H76.6312C81.3417 52.782 84.5358 53.6124 86.3962 55.3209C88.2925 57.0638 88.8842 59.8506 88.1551 63.6048L84.8181 80.7769C84.7487 81.1339 84.4363 81.3916 84.0725 81.3916H75.9706Z" fill="black"/>
<path d="M71.4332 42.2109H63.4579C62.7305 42.2109 62.1054 42.7263 61.9667 43.4401L54.7945 80.3417C54.708 80.787 54.8249 81.2475 55.1136 81.5977C55.4022 81.9478 55.8321 82.1504 56.2858 82.1504H64.261C64.9882 82.1504 65.6135 81.6349 65.7523 80.9212L69.6217 61.0097H74.7433C77.1138 61.0097 77.6113 61.516 77.6313 61.5378C77.7751 61.6925 77.9643 62.409 77.6521 64.0142L74.4795 80.3417C74.3929 80.787 74.5099 81.2475 74.7985 81.5977C75.0871 81.9478 75.517 82.1504 75.9707 82.1504H84.0726C84.7997 82.1504 85.4251 81.6349 85.5638 80.9212L88.9005 63.7491C89.6836 59.7182 89.0137 56.6944 86.9102 54.7611C84.903 52.9177 81.5407 52.0217 76.6313 52.0217H71.3691L72.9244 44.0199C73.0108 43.5745 72.894 43.1137 72.6054 42.7638C72.3168 42.4137 71.8869 42.2109 71.4332 42.2109ZM71.4332 43.73L69.5265 53.5408H76.6313C81.1017 53.5408 84.1852 54.3211 85.8823 55.8797C87.5794 57.4393 88.0878 59.9663 87.4095 63.4595L84.0726 80.6313H75.9707L79.1433 64.3041C79.5044 62.4467 79.3717 61.1798 78.7448 60.5043C78.1177 59.8288 76.7837 59.4906 74.7433 59.4906H68.3692L64.261 80.6313H56.2858L63.4579 43.73H71.4332Z" fill="white"/>
<path d="M100.774 74.049C103.829 74.049 106.109 73.4857 107.552 72.3753C108.979 71.2764 109.965 69.3723 110.482 66.7159C110.964 64.2332 110.781 62.4996 109.937 61.5641C109.074 60.6086 107.209 60.124 104.394 60.124H99.5122L96.806 74.049H100.774ZM84.8079 91.2021C84.5813 91.2021 84.3661 91.1009 84.222 90.9257C84.0777 90.7507 84.019 90.5203 84.0623 90.2978L91.2344 53.3962C91.3041 53.0395 91.6165 52.7817 91.9803 52.7817H107.438C112.296 52.7817 115.912 54.1008 118.185 56.7028C120.47 59.3181 121.175 62.9743 120.282 67.5696C119.918 69.4416 119.293 71.1802 118.423 72.7368C117.552 74.2951 116.402 75.737 115.002 77.0232C113.327 78.5909 111.432 79.7277 109.373 80.3966C107.346 81.0566 104.744 81.3913 101.638 81.3913H95.379L93.5923 90.5874C93.5227 90.9444 93.2103 91.2021 92.8464 91.2021H84.8079Z" fill="black"/>
<path d="M100.138 60.8838H104.394C107.792 60.8838 108.972 61.6294 109.373 62.0737C110.039 62.8115 110.164 64.3671 109.737 66.5718C109.256 69.0405 108.365 70.7908 107.089 71.7737C105.782 72.7798 103.657 73.2897 100.774 73.2897H97.7276L100.138 60.8838ZM107.438 52.0224H91.9801C91.253 52.0224 90.6279 52.5379 90.4892 53.2516L83.317 90.1532C83.2304 90.5985 83.3474 91.0591 83.6358 91.4092C83.9244 91.7594 84.3543 91.9619 84.808 91.9619H92.8465C93.5737 91.9619 94.199 91.4464 94.3378 90.7327L96.0055 82.1511H101.639C104.824 82.1511 107.506 81.8037 109.608 81.1189C111.771 80.4163 113.761 79.2248 115.522 77.5779C116.978 76.2383 118.177 74.7346 119.086 73.1079C119.995 71.4807 120.648 69.6662 121.028 67.7146C121.968 62.8776 121.204 59.0044 118.757 56.2032C116.333 53.4291 112.525 52.0224 107.438 52.0224ZM95.8847 74.8088H100.774C104.015 74.8088 106.429 74.1984 108.015 72.9773C109.602 71.7559 110.672 69.7176 111.228 66.8612C111.76 64.1187 111.518 62.1834 110.501 61.0559C109.483 59.9285 107.448 59.3647 104.394 59.3647H98.8862L95.8847 74.8088ZM107.438 53.5415C112.088 53.5415 115.481 54.7618 117.613 57.2028C119.745 59.6437 120.387 63.0508 119.536 67.425C119.186 69.2269 118.594 70.8743 117.76 72.3669C116.925 73.8604 115.835 75.226 114.489 76.4644C112.883 77.9665 111.1 79.037 109.138 79.6745C107.176 80.3138 104.677 80.632 101.639 80.632H94.753L92.8465 90.4428H84.808L91.9801 53.5415H107.438Z" fill="white"/>
</g>
<defs>
<radialGradient id="paint0_radial_931_2005" cx="0" cy="0" r="1" gradientUnits="userSpaceOnUse" gradientTransform="translate(42.0283 45.946) scale(91.9199 91.9199)">
<stop stop-color="#AEB2D5"/>
<stop offset="0.3" stop-color="#AEB2D5"/>
<stop offset="0.75" stop-color="#484C89"/>
<stop offset="1" stop-color="#484C89"/>
</radialGradient>
<clipPath id="clip0_931_2005">
<rect width="140" height="140" fill="white"/>
</clipPath>
</defs>
</svg>
