<svg width="140" height="140" viewBox="0 0 140 140" fill="none" xmlns="http://www.w3.org/2000/svg">
<path d="M137.924 31.6717C137.974 31.8583 138 32.0508 138 32.2441V62.2947C138 62.6804 137.899 63.0593 137.707 63.393C137.515 63.7268 137.239 64.0036 136.907 64.1955L111.869 78.7168V107.499C111.869 108.283 111.456 109.006 110.782 109.4L58.5182 139.708C58.3986 139.777 58.2681 139.82 58.1376 139.867C58.0886 139.883 58.0424 139.914 57.9907 139.927C57.6254 140.024 57.2414 140.024 56.876 139.927C56.8162 139.911 56.7618 139.878 56.7047 139.856C56.5851 139.812 56.46 139.774 56.3459 139.708L4.09296 109.4C3.76102 109.208 3.4852 108.931 3.29332 108.597C3.10143 108.264 3.00026 107.885 3 107.499V17.3475C3 17.1503 3.02719 16.9586 3.07613 16.7723C3.09244 16.7093 3.1305 16.6518 3.15225 16.5888C3.19304 16.4738 3.2311 16.356 3.29091 16.2492C3.3317 16.178 3.39151 16.1205 3.44045 16.0548C3.50298 15.9671 3.56008 15.8767 3.63348 15.8001C3.69602 15.7371 3.77758 15.6905 3.84827 15.6357C3.92712 15.57 3.9978 15.4988 4.08753 15.4467L30.218 0.292704C30.5489 0.100931 30.9239 0 31.3056 0C31.6873 0 32.0623 0.100931 32.3931 0.292704L58.5209 15.4467H58.5263C58.6133 15.5015 58.6867 15.57 58.7656 15.633C58.8363 15.6878 58.9151 15.7371 58.9777 15.7973C59.0538 15.8767 59.1082 15.9671 59.1734 16.0548C59.2196 16.1205 59.2822 16.178 59.3202 16.2492C59.3828 16.3588 59.4181 16.4738 59.4616 16.5888C59.4834 16.6518 59.5214 16.7093 59.5377 16.7751C59.5878 16.9617 59.6134 17.1542 59.6139 17.3475V73.6554L81.3861 61.0266V32.2413C81.3861 32.0496 81.4133 31.8552 81.4623 31.6717C81.4813 31.6059 81.5166 31.5484 81.5384 31.4854C81.5819 31.3704 81.6199 31.2526 81.6798 31.1458C81.7205 31.0746 81.7804 31.0171 81.8266 30.9513C81.8918 30.8637 81.9462 30.7733 82.0223 30.6966C82.0849 30.6336 82.1637 30.5871 82.2344 30.5323C82.316 30.4666 82.3867 30.3954 82.4737 30.3433L108.607 15.1893C108.938 14.9972 109.313 14.8962 109.694 14.8962C110.076 14.8962 110.451 14.9972 110.782 15.1893L136.91 30.3433C137.002 30.3981 137.073 30.4666 137.154 30.5296C137.222 30.5843 137.301 30.6336 137.364 30.6939C137.44 30.7733 137.494 30.8637 137.56 30.9513C137.608 31.0171 137.668 31.0746 137.706 31.1458C137.769 31.2526 137.804 31.3704 137.848 31.4854C137.872 31.5484 137.908 31.6059 137.924 31.6717ZM133.644 61.0266V36.0374L124.501 41.3398L111.869 48.6662V73.6554L133.647 61.0266H133.644ZM107.517 106.231V81.2256L95.0917 88.374L59.6111 108.773V134.014L107.517 106.231ZM7.35554 21.1408V106.231L55.2556 134.011V108.776L30.2316 94.509L30.2235 94.5035L30.2126 94.4981C30.1283 94.4488 30.0576 94.3775 29.9788 94.3173C29.9108 94.2625 29.832 94.2187 29.7722 94.1584L29.7667 94.1502C29.696 94.0817 29.6471 93.9968 29.5873 93.9202C29.5329 93.8462 29.4677 93.7832 29.4242 93.7065L29.4214 93.6983C29.3725 93.6161 29.3426 93.5176 29.3072 93.4244C29.2719 93.3423 29.2257 93.2656 29.2039 93.1779C29.1767 93.0739 29.1713 92.9616 29.1604 92.8548C29.1496 92.7726 29.1278 92.6904 29.1278 92.6083V33.7696L16.4989 26.4405L7.35554 21.1408ZM31.3083 4.72416L9.53875 17.3475L31.3029 29.9708L53.0697 17.3448L31.3029 4.72416H31.3083ZM42.6294 83.5043L55.2583 76.1807V21.1408L46.115 26.4432L33.4833 33.7696V88.8095L42.6294 83.5043ZM109.694 19.6207L87.9276 32.2441L109.694 44.8674L131.459 32.2413L109.694 19.6207ZM107.517 48.6662L94.885 41.3398L85.7417 36.0374V61.0266L98.3706 68.3503L107.517 73.6554V48.6662ZM57.4307 104.98L89.3577 86.6184L105.317 77.4433L83.5666 64.8281L58.5236 79.3522L35.6992 92.5891L57.4307 104.98Z" fill="#FF2D20"/>
</svg>
