<svg width="140" height="140" viewBox="0 0 140 140" fill="none" xmlns="http://www.w3.org/2000/svg">
<g clip-path="url(#clip0_870_135)">
<path d="M70 140C108.66 140 140 108.66 140 70C140 31.3401 108.66 0 70 0C31.3401 0 0 31.3401 0 70C0 108.66 31.3401 140 70 140Z" fill="#5C2D91"/>
<path opacity="0.1" d="M21.4812 19.6875C14.3652 26.0287 8.61917 33.7563 4.59531 42.3967C0.57144 51.0371 -1.64547 60.4082 -1.91954 69.9357C-2.19361 79.4632 -0.519061 88.9462 3.00146 97.8037C6.52199 106.661 11.8143 114.706 18.554 121.446C25.2938 128.186 33.3389 133.478 42.1963 136.999C51.0538 140.519 60.5368 142.194 70.0643 141.92C79.5918 141.645 88.9629 139.429 97.6033 135.405C106.244 131.381 113.971 125.635 120.312 118.519L21.4812 19.6875Z" fill="white"/>
<path d="M16.1874 81.4843C15.7791 81.4908 15.3739 81.4125 14.9973 81.2543C14.6208 81.0962 14.2812 80.8617 13.9999 80.5656C13.7109 80.2801 13.4825 79.9392 13.3284 79.5633C13.1743 79.1874 13.0977 78.7843 13.103 78.3781C13.1001 77.9722 13.1779 77.5698 13.3319 77.1943C13.4859 76.8188 13.7129 76.4776 13.9999 76.1906C14.2784 75.8895 14.6171 75.6502 14.9939 75.4882C15.3707 75.3261 15.7773 75.245 16.1874 75.25C16.597 75.249 17.0024 75.3319 17.3786 75.4937C17.7548 75.6555 18.0939 75.8927 18.3749 76.1906C18.6669 76.475 18.8986 76.8152 19.0565 77.191C19.2143 77.5668 19.295 77.9705 19.2937 78.3781C19.2975 78.7861 19.218 79.1905 19.06 79.5666C18.902 79.9428 18.6689 80.2827 18.3749 80.5656C18.0913 80.8585 17.7512 81.091 17.3752 81.2489C16.9993 81.4068 16.5952 81.4869 16.1874 81.4843Z" fill="white"/>
<path d="M59.653 80.9375H53.9218L33.4249 49.1312C32.9143 48.3475 32.489 47.5115 32.1562 46.6374H31.9812C32.1759 48.4534 32.249 50.2804 32.1999 52.1062V80.9375H27.5405V41.0593H33.5999L53.5499 72.2968C54.3812 73.5947 54.9207 74.4843 55.1686 74.9656H55.278C55.0472 73.0204 54.9522 71.0615 54.9937 69.1031V41.0593H59.653V80.9375Z" fill="white"/>
<path d="M91.1969 80.9375H70V41.0593H90.2125V45.2812H74.7688V58.5375H89.1625V62.7375H74.7688V76.5625H91.2188L91.1969 80.9375Z" fill="white"/>
<path d="M122.5 45.2812H110.906V80.9375H106.247V45.2812H94.7844V41.0593H122.5V45.2812Z" fill="white"/>
<path d="M57.1374 108.062C55.5581 108.827 53.8161 109.195 52.0624 109.134C50.8971 109.187 49.734 108.99 48.6512 108.556C47.5684 108.122 46.5909 107.461 45.7843 106.619C44.1769 104.82 43.3301 102.467 43.4218 100.056C43.3629 98.7509 43.5669 97.447 44.0216 96.222C44.4763 94.997 45.1724 93.8758 46.0686 92.925C46.9421 92.0302 47.9921 91.327 49.152 90.86C50.312 90.393 51.5564 90.1725 52.8061 90.2125C54.3018 90.1614 55.7917 90.4221 57.1811 90.9781V93.1656C55.8434 92.425 54.335 92.0479 52.8061 92.0718C51.8423 92.0447 50.8839 92.2261 49.9967 92.6037C49.1095 92.9812 48.3143 93.546 47.6655 94.2593C46.3013 95.8135 45.5952 97.8376 45.6968 99.9031C45.5946 101.86 46.253 103.78 47.5343 105.262C48.1488 105.923 48.8991 106.443 49.7335 106.787C50.568 107.131 51.4669 107.29 52.3686 107.253C54.0482 107.297 55.7069 106.873 57.1593 106.028L57.1374 108.062Z" fill="#F2F2F2"/>
<path d="M66.0843 109.134C65.2135 109.163 64.3469 109.003 63.543 108.667C62.7391 108.332 62.0168 107.827 61.4249 107.187C60.2288 105.853 59.6077 104.1 59.6968 102.309C59.6422 101.371 59.7746 100.432 60.0863 99.5458C60.398 98.6595 60.8827 97.8441 61.5124 97.1469C62.1551 96.5197 62.9196 96.0311 63.7586 95.7112C64.5977 95.3914 65.4935 95.2472 66.3906 95.2875C67.2385 95.2423 68.0861 95.3812 68.8753 95.6946C69.6645 96.0081 70.3765 96.4885 70.9624 97.1031C72.1251 98.5043 72.7116 100.295 72.6031 102.112C72.6948 103.957 72.0585 105.764 70.8312 107.144C70.2282 107.796 69.4924 108.31 68.6736 108.654C67.8548 108.997 66.9718 109.161 66.0843 109.134ZM66.2374 97.1687C65.6357 97.1434 65.036 97.2542 64.483 97.4928C63.9301 97.7314 63.4381 98.0917 63.0437 98.5469C62.202 99.6307 61.7822 100.983 61.8624 102.353C61.786 103.682 62.2071 104.992 63.0437 106.028C63.4422 106.477 63.9355 106.831 64.4878 107.066C65.0402 107.3 65.6378 107.409 66.2374 107.384C66.8244 107.419 67.4116 107.319 67.9538 107.091C68.4961 106.864 68.979 106.515 69.3656 106.072C70.1608 104.985 70.5481 103.653 70.4593 102.309C70.5458 100.959 70.159 99.6209 69.3656 98.525C68.9844 98.0726 68.5036 97.7147 67.9608 97.4794C67.4181 97.2441 66.8282 97.1377 66.2374 97.1687Z" fill="#F2F2F2"/>
<path d="M82.8187 97.825C82.3462 97.5155 81.7853 97.3695 81.2218 97.4094C80.7812 97.4254 80.3512 97.5495 79.9697 97.7708C79.5883 97.992 79.2671 98.3036 79.0343 98.6782C78.3833 99.709 78.0697 100.917 78.1375 102.134V108.828H75.95V95.7032H78.1375V98.4375C78.3779 97.5915 78.8562 96.8322 79.5156 96.25C80.0861 95.7549 80.8164 95.483 81.5718 95.4844C81.9947 95.4654 82.4174 95.5247 82.8187 95.6594V97.825Z" fill="#F2F2F2"/>
<path d="M95.6376 102.812H86.3845C86.3224 104.035 86.7204 105.237 87.5001 106.181C87.9056 106.586 88.3919 106.9 88.9271 107.103C89.4624 107.307 90.0346 107.395 90.6064 107.362C92.0892 107.348 93.5234 106.831 94.6751 105.897V107.866C93.3226 108.757 91.721 109.194 90.1032 109.112C89.287 109.154 88.4716 109.014 87.7154 108.704C86.9592 108.394 86.2807 107.921 85.7282 107.319C84.5894 105.898 84.0202 104.105 84.1314 102.287C84.0527 100.466 84.6706 98.6825 85.8595 97.2999C86.4005 96.6749 87.0737 96.178 87.8304 95.8451C88.587 95.5122 89.4082 95.3516 90.2345 95.3749C90.9806 95.3331 91.7265 95.461 92.416 95.749C93.1056 96.0369 93.7209 96.4774 94.2157 97.0374C95.223 98.3656 95.7198 100.011 95.6157 101.675L95.6376 102.812ZM93.4501 101.041C93.4945 100.027 93.1852 99.0294 92.5751 98.2187C92.2758 97.8805 91.9039 97.6143 91.4872 97.4401C91.0705 97.2658 90.6198 97.188 90.1689 97.2124C89.6981 97.2067 89.2313 97.299 88.7982 97.4835C88.3651 97.6681 87.9752 97.9408 87.6532 98.2843C86.9333 99.046 86.4803 100.021 86.3626 101.062L93.4501 101.041Z" fill="#F2F2F2"/>
</g>
<defs>
<clipPath id="clip0_870_135">
<rect width="140" height="140" fill="white"/>
</clipPath>
</defs>
</svg>
