<svg width="140" height="140" viewBox="0 0 140 140" fill="none" xmlns="http://www.w3.org/2000/svg">
<path d="M51.0676 108.226C51.0676 108.226 45.6211 111.332 54.9438 112.382C66.2382 113.646 72.0102 113.465 84.4568 111.155C84.4568 111.155 87.7293 113.167 92.2988 114.909C64.3977 126.634 29.1523 114.23 51.0676 108.226ZM47.6581 92.9257C47.6581 92.9257 41.5493 97.3595 50.879 98.3055C62.9438 99.5259 72.4716 99.6258 88.9586 96.5131C88.9586 96.5131 91.2391 98.7798 94.8248 100.02C61.0901 109.692 23.516 100.782 47.6581 92.9257Z" fill="#5382A1"/>
<path d="M76.4008 66.9713C83.2759 74.732 74.5945 81.7159 74.5945 81.7159C74.5945 81.7159 92.0509 72.8801 84.034 61.8152C76.5465 51.4973 70.8041 46.3699 101.889 28.6935C101.889 28.6935 53.096 40.6424 76.4008 66.9713Z" fill="#E76F00"/>
<path d="M113.303 119.543C113.303 119.543 117.333 122.799 108.864 125.318C92.7587 130.102 41.8326 131.547 27.6854 125.509C22.6001 123.34 32.1369 120.33 35.1366 119.698C38.2651 119.032 40.0532 119.157 40.0532 119.157C34.3975 115.25 3.49751 126.827 24.3576 130.142C81.2456 139.188 128.059 126.069 113.303 119.543ZM53.6866 77.0729C53.6866 77.0729 27.7828 83.1058 44.5137 85.2961C51.5778 86.2235 65.6603 86.0139 78.7778 84.936C89.4982 84.0498 100.263 82.1643 100.263 82.1643C100.263 82.1643 96.4827 83.7516 93.7479 85.5825C67.4426 92.3661 16.6254 89.2104 31.255 82.2715C43.6273 76.4077 53.6866 77.0729 53.6866 77.0729ZM100.156 102.541C126.897 88.9162 114.533 75.8234 105.903 77.5876C103.788 78.0189 102.845 78.3928 102.845 78.3928C102.845 78.3928 103.63 77.187 105.13 76.665C122.202 70.7798 135.332 94.0222 99.6186 103.227C99.6186 103.228 100.032 102.865 100.156 102.541Z" fill="#5382A1"/>
<path d="M84.034 0.150063C84.034 0.150063 98.8435 14.6761 69.9879 37.0117C46.849 54.9293 64.7115 65.1453 69.9784 76.8175C56.4717 64.8689 46.5593 54.3503 53.2095 44.5608C62.9696 30.1898 90.009 23.223 84.034 0.150063Z" fill="#E76F00"/>
<path d="M56.3144 139.46C81.9821 141.071 121.398 138.566 122.331 126.657C122.331 126.657 120.537 131.172 101.118 134.757C79.2102 138.799 52.1902 138.328 36.1641 135.737C36.1645 135.737 39.4444 138.399 56.3144 139.46Z" fill="#5382A1"/>
</svg>
