<svg width="48" height="48" viewBox="0 0 48 48" fill="none" xmlns="http://www.w3.org/2000/svg">
<g clip-path="url(#clip0_553_1478)">
<path d="M24 48C37.2548 48 48 37.2548 48 24C48 10.7452 37.2548 0 24 0C10.7452 0 0 10.7452 0 24C0 37.2548 10.7452 48 24 48Z" fill="#4353FF"/>
<path d="M31.05 21.15L28.875 28.005C28.875 27.48 27.375 16.11 27.375 16.11C23.925 16.11 22.095 18.555 21.135 21.15L18.48 28.02C18.48 27.525 18.105 21.21 18.105 21.21C17.9769 19.8429 17.352 18.5703 16.3485 17.6331C15.345 16.696 14.0326 16.1594 12.66 16.125L15.48 33.345C19.08 33.345 21.03 30.9 22.035 28.305L24.285 22.455C24.285 22.695 25.785 33.345 25.785 33.345C27.2571 33.3431 28.6903 32.8725 29.877 32.0014C31.0637 31.1302 31.9421 29.9039 32.385 28.5L37.485 16.11C33.885 16.11 31.995 18.555 31.035 21.15H31.05Z" fill="white"/>
</g>
<defs>
<clipPath id="clip0_553_1478">
<rect width="48" height="48" fill="white"/>
</clipPath>
</defs>
</svg>
