<svg width="140" height="140" viewBox="0 0 140 140" fill="none" xmlns="http://www.w3.org/2000/svg">
<path d="M12.9931 28H126.95C134.162 28 140 33.8476 140 41.0717V84.6429C140 91.8671 134.162 97.7147 126.95 97.7147H86.0835L91.6928 111.474L67.0238 97.7147H13.05C5.83832 97.7147 0.000420041 91.8671 0.000420041 84.6429V41.0717C-0.0570019 33.9051 5.78035 28 12.9931 28Z" fill="#9B5C8F"/>
<path d="M7.97213 39.9144C8.76893 38.8308 9.96385 38.2611 11.5574 38.1472C14.4603 37.9188 16.1107 39.2866 16.5089 42.2512C18.2731 54.1655 20.2079 64.2556 22.2565 72.5211L34.7198 48.7501C35.8584 46.5836 37.2814 45.4437 38.9887 45.3297C41.4929 45.1588 43.029 46.7545 43.6552 50.1179C45.0782 57.6992 46.8993 64.1412 49.0616 69.6135C50.5415 55.1345 53.0456 44.7025 56.574 38.2611C57.4272 36.6649 58.6795 35.8668 60.33 35.7523C61.6392 35.6389 62.8341 36.0377 63.9153 36.8928C64.9965 37.7479 65.5658 38.8308 65.6795 40.1422C65.7364 41.1682 65.5658 42.0233 65.1108 42.8784C62.891 46.9829 61.0694 53.8806 59.5901 63.457C58.1676 72.749 57.6552 79.9891 57.9965 85.1766C58.1108 86.6008 57.8827 87.8552 57.314 88.9387C56.6304 90.1926 55.6066 90.8768 54.2974 90.9907C52.8176 91.1047 51.2814 90.421 49.8015 88.8818C44.5089 83.4658 40.2974 75.3712 37.2245 64.5975C33.5249 71.8939 30.7932 77.3663 29.029 81.0145C25.6712 87.4564 22.8258 90.7629 20.4354 90.9338C18.8987 91.0477 17.59 89.7363 16.452 87.0007C13.5497 79.5328 10.4194 65.1102 7.06213 43.7335C6.83408 42.2512 7.17533 40.9398 7.97213 39.9144ZM130.273 48.864C128.225 45.2728 125.208 43.1068 121.168 42.2512C120.086 42.0233 119.062 41.9094 118.094 41.9094C112.631 41.9094 108.192 44.7595 104.72 50.4603C101.761 55.3054 100.281 60.6638 100.281 66.5355C100.281 70.9249 101.192 74.6871 103.013 77.8226C105.062 81.4138 108.078 83.5798 112.119 84.4349C113.2 84.6633 114.224 84.7772 115.192 84.7772C120.712 84.7772 125.151 81.9271 128.566 76.2263C131.525 71.3237 133.005 65.9653 133.005 60.0941C133.062 55.6478 132.094 51.942 130.273 48.864ZM123.103 64.6544C122.306 68.4166 120.883 71.2097 118.777 73.0908C117.127 74.5731 115.59 75.1998 114.168 74.9149C112.802 74.6301 111.663 73.4332 110.81 71.2097C110.126 69.4426 109.786 67.6754 109.786 66.0222C109.786 64.5975 109.899 63.1721 110.184 61.8613C110.696 59.5239 111.664 57.2435 113.2 55.0775C115.078 52.2838 117.07 51.1445 119.119 51.5432C120.485 51.8281 121.623 53.0255 122.476 55.2484C123.159 57.0156 123.501 58.7827 123.501 60.4359C123.501 61.9182 123.387 63.3436 123.103 64.6544ZM94.647 48.864C92.5984 45.2728 89.5249 43.1068 85.5415 42.2512C84.4603 42.0233 83.436 41.9094 82.468 41.9094C77.0048 41.9094 72.5658 44.7595 69.0942 50.4603C66.1351 55.3054 64.6552 60.6638 64.6552 66.5355C64.6552 70.9249 65.5658 74.6871 67.3869 77.8226C69.4355 81.4138 72.452 83.5798 76.4923 84.4349C77.5741 84.6633 78.5978 84.7772 79.5658 84.7772C85.0859 84.7772 89.5249 81.9271 92.9396 76.2263C95.8993 71.3237 97.3786 65.9653 97.3786 60.0941C97.3786 55.6478 96.4681 51.942 94.647 48.864ZM87.4195 64.6544C86.6227 68.4166 85.1997 71.2097 83.0942 73.0908C81.4438 74.5731 79.907 75.1998 78.4841 74.9149C77.1185 74.6301 75.9805 73.4332 75.1263 71.2097C74.4437 69.4426 74.1025 67.6754 74.1025 66.0222C74.1025 64.5975 74.2162 63.1721 74.5006 61.8613C75.013 59.5239 75.9805 57.2435 77.5172 55.0775C79.3952 52.2838 81.3869 51.1445 83.4355 51.5432C84.8016 51.8281 85.9402 53.0255 86.7933 55.2484C87.4769 57.0156 87.8176 58.7827 87.8176 60.4359C87.875 61.9182 87.7038 63.3436 87.4195 64.6544Z" fill="white"/>
</svg>
