<svg width="48" height="48" viewBox="0 0 48 48" fill="none" xmlns="http://www.w3.org/2000/svg">
<g clip-path="url(#clip0_773_2027)">
<path d="M36.9412 9.363C36.906 9.15075 36.7327 8.988 36.5182 8.96775C36.3495 8.94 32.6408 8.68575 32.6408 8.68575L29.8132 5.85825C29.5583 5.57625 28.9942 5.65875 28.7812 5.71725C28.7535 5.71725 28.2172 5.886 27.3397 6.171C26.487 3.7035 24.9772 1.4415 22.3177 1.4415H22.0905C21.3285 0.45375 20.3955 0 19.608 0C13.416 0.02775 10.4655 7.74975 9.5325 11.6955L5.205 13.023C3.8775 13.446 3.82875 13.4767 3.65025 14.7428L0 42.8812L27.351 48L42.1732 44.805C42.1732 44.7773 36.9683 9.6315 36.9412 9.363ZM25.8232 6.645C25.1355 6.87225 24.351 7.09875 23.5057 7.35375V6.84375C23.5308 5.57112 23.3401 4.30344 22.9417 3.0945C24.3278 3.3075 25.2592 4.86225 25.824 6.64425L25.8232 6.645ZM21.2722 3.4215C21.7245 4.755 21.9345 6.159 21.8918 7.56675V7.82175L17.1105 9.294C18.0465 5.799 19.7722 4.0725 21.2722 3.4215ZM19.4347 1.70175C19.7176 1.70777 19.9926 1.79612 20.226 1.956C18.231 2.8845 16.122 5.2305 15.2175 9.92625L11.4338 11.0858C12.501 7.5225 14.991 1.695 19.4325 1.695L19.4347 1.70175Z" fill="#95BF47"/>
<path d="M36.5183 8.96776C36.3495 8.94001 32.6408 8.68576 32.6408 8.68576L29.8133 5.85826C29.7083 5.75176 29.5658 5.69101 29.418 5.68951L27.354 48L42.1763 44.805L36.9413 9.39151C36.9243 9.28544 36.8742 9.18744 36.7983 9.11148C36.7223 9.03552 36.6243 8.98549 36.5183 8.96851V8.96776Z" fill="#5E8E3E"/>
<path d="M22.3185 17.1675L20.478 22.599C19.3658 22.0605 18.15 21.771 16.914 21.7492C14.028 21.7492 13.887 23.5582 13.887 24.0127C13.887 26.4862 20.364 27.4357 20.364 33.2625C20.364 37.845 17.4503 40.785 13.539 40.785C8.844 40.785 6.43875 37.8712 6.43875 37.8712L7.6875 33.7087C7.6875 33.7087 10.1475 35.8312 12.2423 35.8312C12.4927 35.8408 12.7424 35.7994 12.9764 35.7097C13.2103 35.6199 13.4237 35.4836 13.6034 35.309C13.7832 35.1344 13.9257 34.9252 14.0222 34.694C14.1188 34.4627 14.1675 34.2143 14.1653 33.9637C14.1653 30.7087 8.84775 30.5685 8.84775 25.2502C8.84775 20.7787 12.0713 16.4227 18.5483 16.4227C21.0938 16.4602 22.3118 17.1652 22.3118 17.1652L22.3185 17.1675Z" fill="white"/>
</g>
<defs>
<clipPath id="clip0_773_2027">
<rect width="48" height="48" fill="white"/>
</clipPath>
</defs>
</svg>
