<svg width="140" height="140" viewBox="0 0 140 140" fill="none" xmlns="http://www.w3.org/2000/svg">
<path d="M24.7917 2H115.208C128.917 2 140 13.1204 140 26.8746V114.082C140 127.836 128.917 138.957 115.208 138.957H24.7917C11.0833 138.957 0 127.836 0 114.082V26.8746C0 13.1204 11.0833 2 24.7917 2Z" fill="#001E36"/>
<path d="M31.5 98.0452V37.8194C31.5 37.4097 31.675 37.1756 32.0833 37.1756C33.075 37.1756 34.0083 37.1756 35.35 37.1171C36.75 37.0586 38.2083 37.0586 39.7833 37C41.3583 36.9415 43.05 36.9415 44.8583 36.883C46.6667 36.8245 48.4167 36.8245 50.1667 36.8245C54.95 36.8245 58.9167 37.4097 62.1833 38.6388C65.1 39.6338 67.7833 41.2726 70 43.4382C71.8667 45.3111 73.325 47.5937 74.2583 50.1104C75.1333 52.5686 75.6 55.0853 75.6 57.7191C75.6 62.7526 74.4333 66.9081 72.1 70.1857C69.7667 73.4633 66.5 75.9215 62.7083 77.3261C58.7417 78.7893 54.3667 79.3161 49.5833 79.3161C48.1833 79.3161 47.25 79.3161 46.6667 79.2576C46.0833 79.199 45.2667 79.199 44.1583 79.199V97.9867C44.2167 98.3964 43.925 98.7475 43.5167 98.8061C43.4583 98.8061 43.4 98.8061 43.2833 98.8061H32.2C31.7333 98.8061 31.5 98.572 31.5 98.0452ZM44.2167 48.4716V68.1372C45.0333 68.1957 45.7917 68.2542 46.4917 68.2542H49.5833C51.8583 68.2542 54.1333 67.9031 56.2917 67.2007C58.1583 66.674 59.7917 65.5619 61.075 64.0987C62.3 62.6355 62.8833 60.6455 62.8833 58.0703C62.9417 56.2559 62.475 54.4415 61.5417 52.8613C60.55 51.3395 59.15 50.1689 57.4583 49.5251C55.3 48.6472 52.9667 48.296 50.575 48.3546C49.0583 48.3546 47.7167 48.3546 46.6083 48.4131C45.4417 48.3546 44.625 48.4131 44.2167 48.4716Z" fill="#31A8FF"/>
<path d="M112 64.5668C110.25 63.6303 108.383 62.9865 106.4 62.5768C104.242 62.1086 102.083 61.8159 99.8667 61.8159C98.7 61.7574 97.475 61.933 96.3667 62.2256C95.6083 62.4012 94.9667 62.8109 94.5583 63.3962C94.2667 63.8644 94.0917 64.4497 94.0917 64.9765C94.0917 65.5032 94.325 66.03 94.675 66.4982C95.2 67.142 95.9 67.6688 96.6583 68.0785C98 68.7808 99.4 69.4246 100.8 70.0099C103.95 71.0634 106.983 72.5266 109.783 74.2825C111.708 75.5116 113.283 77.1504 114.392 79.1404C115.325 81.0133 115.792 83.0618 115.733 85.1688C115.792 87.9196 114.975 90.6705 113.458 92.9531C111.825 95.2942 109.55 97.1086 106.925 98.1621C104.067 99.3912 100.567 100.035 96.3667 100.035C93.6833 100.035 91.0583 99.8009 88.4333 99.2741C86.3917 98.923 84.35 98.2791 82.4833 97.4012C82.075 97.1671 81.7833 96.7574 81.8417 96.2892V86.1052C81.8417 85.9296 81.9 85.6955 82.075 85.5785C82.25 85.4614 82.425 85.52 82.6 85.637C84.875 86.9832 87.2667 87.9196 89.8333 88.5049C92.05 89.0902 94.3833 89.3828 96.7167 89.3828C98.9333 89.3828 100.508 89.0902 101.558 88.5634C102.492 88.1537 103.133 87.1587 103.133 86.1052C103.133 85.2858 102.667 84.525 101.733 83.7641C100.8 83.0032 98.875 82.1253 96.0167 81.0133C93.0417 79.9598 90.3 78.5551 87.7333 76.7992C85.925 75.5116 84.4083 73.8143 83.3 71.8243C82.3667 69.9514 81.9 67.9029 81.9583 65.8544C81.9583 63.3377 82.6583 60.938 83.9417 58.7725C85.4 56.4313 87.5583 54.5584 90.0667 53.3879C92.8083 51.9832 96.25 51.3394 100.392 51.3394C102.783 51.3394 105.233 51.5149 107.625 51.8661C109.375 52.1002 111.067 52.5685 112.642 53.2123C112.875 53.2708 113.108 53.5049 113.225 53.739C113.283 53.9731 113.342 54.2072 113.342 54.4414V63.9815C113.342 64.2156 113.225 64.4497 113.05 64.5668C112.525 64.6838 112.233 64.6838 112 64.5668Z" fill="#31A8FF"/>
</svg>
