<svg width="140" height="140" viewBox="0 0 140 140" fill="none" xmlns="http://www.w3.org/2000/svg">
<g clip-path="url(#clip0_870_170)">
<path d="M46.4328 140C59.3677 140 69.8656 129.547 69.8656 116.667V93.3333H46.4328C33.4979 93.3333 23 103.787 23 116.667C23 129.547 33.4979 140 46.4328 140Z" fill="#0ACF83"/>
<path d="M23 70.0001C23 57.1201 33.4979 46.6667 46.4328 46.6667H69.8656V93.3334H46.4328C33.4979 93.3334 23 82.8801 23 70.0001Z" fill="#A259FF"/>
<path d="M23 23.3333C23 10.4533 33.4979 0 46.4328 0H69.8656V46.6667H46.4328C33.4979 46.6667 23 36.2133 23 23.3333Z" fill="#F24E1E"/>
<path d="M69.8657 0H93.2985C106.233 0 116.731 10.4533 116.731 23.3333C116.731 36.2133 106.233 46.6667 93.2985 46.6667H69.8657V0Z" fill="#FF7262"/>
<path d="M116.731 70.0001C116.731 82.8801 106.233 93.3334 93.2985 93.3334C80.3636 93.3334 69.8657 82.8801 69.8657 70.0001C69.8657 57.1201 80.3636 46.6667 93.2985 46.6667C106.233 46.6667 116.731 57.1201 116.731 70.0001Z" fill="#1ABCFE"/>
</g>
<defs>
<clipPath id="clip0_870_170">
<rect width="140" height="140" fill="white"/>
</clipPath>
</defs>
</svg>
