<svg width="140" height="140" viewBox="0 0 140 140" fill="none" xmlns="http://www.w3.org/2000/svg">
<path d="M30.5454 11.1797L70 7L109.455 11.1797L140 52.2683L70 133.95L0 52.2683L30.5454 11.1797Z" fill="#FDB300"/>
<path d="M28.3535 52.2683L70.0001 133.95L0 52.2683H28.3535Z" fill="#EA6C00"/>
<path d="M111.646 52.2683L69.9999 133.95L140 52.2683H111.646Z" fill="#EA6C00"/>
<path d="M28.3535 52.2683H111.647L70.0001 133.95L28.3535 52.2683Z" fill="#FDAD00"/>
<path d="M70.0001 7L30.5453 11.1796L28.3535 52.2683L70.0001 7Z" fill="#FDD231"/>
<path d="M69.9999 7L109.455 11.1796L111.646 52.2683L69.9999 7Z" fill="#FDD231"/>
<path d="M140 52.2683L109.454 11.1797L111.646 52.2683H140Z" fill="#FDAD00"/>
<path d="M0 52.2683L30.5453 11.1797L28.3535 52.2683H0Z" fill="#FDAD00"/>
<path d="M70.0001 7L28.3535 52.2683H111.647L70.0001 7Z" fill="#FEEEB7"/>
</svg>
