<svg width="140" height="140" viewBox="0 0 140 140" fill="none" xmlns="http://www.w3.org/2000/svg">
<path d="M72.4165 76.4255C72.6762 71.7923 74.9451 67.7103 78.368 64.8166C81.7248 61.9744 86.2429 60.2373 91.1727 60.2373C96.0976 60.2373 100.616 61.9744 103.975 64.8166C107.396 67.7103 109.664 71.7923 109.927 76.4207C110.186 81.1813 108.273 85.6039 104.916 88.8822C101.493 92.2169 96.6244 94.3093 91.1727 94.3093C85.7211 94.3093 80.8427 92.2169 77.4222 88.8822C74.063 85.6039 72.1543 81.1813 72.4165 76.4255Z" fill="#265787"/>
<path d="M42.5486 85.8097C42.5805 87.6228 43.1587 91.1462 44.0261 93.8977C45.849 99.7218 48.9412 105.11 53.2437 109.858C57.659 114.739 63.096 118.659 69.3758 121.442C75.9767 124.366 83.1288 125.855 90.5578 125.843C97.9745 125.833 105.127 124.314 111.728 121.369C118.007 118.559 123.439 114.621 127.847 109.738C132.147 104.97 135.235 99.5723 137.063 93.7483C137.981 90.8056 138.562 87.8188 138.795 84.8223C139.023 81.8698 138.927 78.9125 138.508 75.9576C137.69 70.1997 135.698 64.7971 132.63 59.8722C129.825 55.3468 126.208 51.3849 121.908 48.0502L121.918 48.0429L78.5224 14.723C78.4832 14.6936 78.4514 14.6618 78.4097 14.6349C75.5626 12.4493 70.7749 12.4567 67.6436 14.6471C64.4779 16.8621 64.1152 20.525 66.933 22.8355L66.9207 22.8478L85.0203 37.566L29.8542 37.6248H29.7807C25.2208 37.6297 20.8374 40.6213 19.9701 44.4019C19.0782 48.2536 22.1752 51.4486 26.9164 51.4657L26.909 51.4829L54.8706 51.429L4.97485 89.7276C4.91114 89.7741 4.84253 89.8231 4.78372 89.8696C0.0768967 93.4738 -1.44464 99.4669 1.5201 103.26C4.52894 107.116 10.9264 107.124 15.6822 103.282L42.9137 80.9951C42.9137 80.9951 42.5168 84.0039 42.5486 85.8097ZM112.524 95.8848C106.913 101.601 99.0575 104.843 90.5578 104.86C82.0458 104.874 74.1905 101.662 68.5795 95.9559C65.8377 93.1749 63.8237 89.975 62.5814 86.5668C61.3637 83.2175 60.8908 79.6622 61.2044 76.0752C61.5009 72.569 62.5447 69.2245 64.2108 66.1986C65.8476 63.2241 68.1017 60.5363 70.8852 58.2625C76.3393 53.8179 83.2832 51.4118 90.5455 51.402C97.8153 51.3922 104.754 53.7762 110.213 58.2061C112.992 60.4701 115.244 63.1481 116.88 66.1177C118.554 69.1412 119.59 72.4734 119.899 75.9894C120.208 79.5716 119.735 83.1219 118.517 86.4737C117.272 89.8917 115.266 93.0916 112.524 95.8848Z" fill="#EA7600"/>
</svg>
