<svg width="140" height="140" viewBox="0 0 140 140" fill="none" xmlns="http://www.w3.org/2000/svg">
<path d="M24.7917 2H115.208C128.917 2 140 13.0833 140 26.7917V113.708C140 127.417 128.917 138.5 115.208 138.5H24.7917C11.0833 138.5 0 127.417 0 113.708V26.7917C0 13.0833 11.0833 2 24.7917 2Z" fill="#00005B"/>
<path d="M33.25 97.6668V37.5835C33.25 37.1751 33.425 36.9418 33.8333 36.9418C34.825 36.9418 35.7583 36.9418 37.1 36.8835C38.5 36.8251 39.9583 36.8251 41.5333 36.7668C43.1083 36.7085 44.8 36.7085 46.6083 36.6501C48.4167 36.5918 50.1667 36.5918 51.9167 36.5918C56.7 36.5918 60.6667 37.1751 63.9333 38.4001C66.85 39.3918 69.5333 41.0251 71.75 43.1835C73.6167 45.0501 75.075 47.3251 76.0083 49.8335C76.8833 52.2835 77.35 54.7918 77.35 57.4168C77.35 62.4335 76.1833 66.5751 73.85 69.8418C71.5167 73.1085 68.25 75.5585 64.4583 76.9585C60.4917 78.4168 56.1167 78.9418 51.3333 78.9418C49.9333 78.9418 49 78.9418 48.4167 78.8835C47.8333 78.8251 47.0167 78.8251 45.9083 78.8251V97.5501C45.9667 97.9585 45.675 98.3085 45.2667 98.3668H45.0333H33.95C33.4833 98.3668 33.25 98.1335 33.25 97.6085V97.6668ZM45.9667 48.2585V67.8585C46.7833 67.9168 47.5417 67.9751 48.2417 67.9751H51.3333C53.6083 67.9751 55.8833 67.6251 58.0417 66.9251C59.9083 66.4001 61.5417 65.2918 62.825 63.8335C64.05 62.3751 64.6333 60.3918 64.6333 57.8251C64.6917 56.0168 64.225 54.2085 63.2917 52.6335C62.3 51.1168 60.9 49.9501 59.2083 49.3085C57.05 48.4335 54.7167 48.0835 52.325 48.1418C50.8083 48.1418 49.4667 48.1418 48.3583 48.2001C47.1917 48.1418 46.375 48.2001 45.9667 48.2585Z" fill="#9999FF"/>
<path d="M85.75 51.6998H95.9584C96.5417 51.6998 97.0084 52.1081 97.1834 52.6331C97.3584 53.0998 97.475 53.5665 97.5334 54.0915C97.65 54.6748 97.7667 55.3165 97.825 55.8998C97.8834 56.5415 97.9417 57.2414 97.9417 57.9998C99.6917 55.9581 101.792 54.2665 104.183 52.9831C106.867 51.4665 109.958 50.7081 113.05 50.7081C113.458 50.6498 113.808 50.9414 113.867 51.3498V51.5831V62.9581C113.867 63.4248 113.575 63.5998 112.933 63.5998C110.833 63.5414 108.675 63.7164 106.633 64.1831C104.942 64.5331 103.308 65.0581 101.733 65.7581C100.625 66.2831 99.575 66.9831 98.7584 67.9164V97.6664C98.7584 98.2498 98.525 98.4831 98 98.4831H86.5084C86.0417 98.5414 85.6334 98.2498 85.575 97.7831V97.5498V65.2331C85.575 63.8331 85.575 62.3748 85.5167 60.8581C85.4584 59.3414 85.4584 57.8248 85.4 56.3081C85.4 54.9664 85.2834 53.6831 85.1667 52.3415C85.1084 52.0498 85.2834 51.7581 85.575 51.6998C85.575 51.6414 85.6917 51.6414 85.75 51.6998Z" fill="#9999FF"/>
</svg>
