<svg width="140" height="140" viewBox="0 0 140 140" fill="none" xmlns="http://www.w3.org/2000/svg">
<path d="M24.7917 2H115.208C128.917 2 140 13.0833 140 26.7917V113.708C140 127.417 128.917 138.5 115.208 138.5H24.7917C11.0833 138.5 0 127.417 0 113.708V26.7917C0 13.0833 11.0833 2 24.7917 2Z" fill="#00005B"/>
<path d="M56.2332 83.6667H34.5332L30.0999 97.4334C29.9832 97.9584 29.5166 98.3084 28.9916 98.25H18.0249C17.3832 98.25 17.2082 97.9 17.3832 97.2L36.1666 43.3584C36.3416 42.775 36.5166 42.25 36.7499 41.55C36.9832 40.325 37.0999 39.0417 37.0999 37.7584C37.0416 37.4667 37.2749 37.175 37.5666 37.1167H37.7416H52.6749C53.0832 37.1167 53.3749 37.2917 53.4332 37.5834L74.7249 97.0834C74.8999 97.725 74.7249 98.0167 74.1416 98.0167H61.9499C61.5416 98.075 61.1332 97.7834 61.0166 97.375L56.2332 83.375V83.6667ZM37.9166 72.0584H52.7332C52.3832 70.8334 51.9166 69.375 51.3916 67.8584C50.8666 66.2834 50.3416 64.5917 49.8166 62.8417C49.2332 61.0334 48.7082 59.2834 48.1249 57.475C47.5416 55.6667 47.0166 53.975 46.5499 52.2834C46.0832 50.65 45.6749 49.1334 45.2666 47.7334H45.1499C44.6249 50.2417 43.9832 52.75 43.1666 55.2584C42.2916 58.0584 41.4166 60.975 40.4832 63.8917C39.7249 66.8667 38.7916 69.6084 37.9166 72.0584Z" fill="#9999FF"/>
<path d="M109.083 78.4165H90.5918C90.8251 80.2249 91.4084 82.0332 92.4001 83.6082C93.4501 85.1832 94.9084 86.4082 96.6584 87.1082C98.9918 88.0999 101.558 88.6249 104.125 88.5665C106.167 88.5082 108.208 88.3332 110.192 87.9249C112 87.6915 113.75 87.2249 115.383 86.5832C115.675 86.3499 115.85 86.4665 115.85 87.0499V95.9749C115.85 96.2082 115.792 96.4415 115.733 96.6749C115.617 96.8499 115.5 96.9665 115.325 97.0832C113.458 97.8999 111.533 98.4832 109.492 98.8332C106.75 99.3582 104.008 99.5915 101.208 99.5332C96.7751 99.5332 93.0418 98.8332 90.0085 97.4915C87.1501 96.2665 84.6418 94.3415 82.6584 91.9499C80.7918 89.6749 79.4501 87.1082 78.6335 84.3082C77.8168 81.5665 77.4084 78.7082 77.4084 75.7915C77.4084 72.6415 77.8751 69.5499 78.8668 66.5165C79.8001 63.5999 81.2584 60.9165 83.2418 58.5249C85.1668 56.1915 87.5585 54.3249 90.3001 52.9832C93.0418 51.6415 96.3085 51.1749 100.042 51.1749C103.133 51.1165 106.225 51.6999 109.083 52.9832C111.475 54.0332 113.575 55.6082 115.208 57.6499C116.725 59.6332 117.95 61.8499 118.708 64.2999C119.467 66.6332 119.817 69.0249 119.817 71.4165C119.817 72.8165 119.758 74.0415 119.7 75.1499C119.583 76.2582 119.525 77.0749 119.467 77.5999C119.408 78.0082 119.058 78.3582 118.65 78.3582C118.3 78.3582 117.658 78.4165 116.725 78.4749C115.792 78.5915 114.683 78.6499 113.342 78.6499C112 78.6499 110.6 78.4165 109.083 78.4165ZM90.5918 69.8999H102.9C104.417 69.8999 105.525 69.8999 106.225 69.8415C106.692 69.7832 107.158 69.6665 107.567 69.3749V68.7915C107.567 68.0332 107.45 67.3332 107.217 66.6332C106.167 63.3665 103.075 61.1499 99.6335 61.2665C96.4251 61.0915 93.3918 62.7832 91.8751 65.6999C91.1751 67.0415 90.7668 68.4415 90.5918 69.8999Z" fill="#9999FF"/>
</svg>
